<svg version="1.1" id="Layer_1" xmlns="http://www.w3.org/2000/svg" xmlns:xlink="http://www.w3.org/1999/xlink" x="0px" y="0px"
	 viewBox="0 0 500 500" style="enable-background:new 0 0 500 500;" xml:space="preserve">
<style type="text/css">
	.st0{fill:#E42A28;}
</style>
<g id="XMLID_29_">
	<path id="XMLID_31_" class="st0" d="M167.5,248.7h-16.8l-6.6,29.2l-6,26.7h19l3.8-20.6H185l4,20.6h19l-24.7-109.1h-20.4l-11.3,49
		h16.7c0,0,3-15.8,4.7-23.6c1.4,7.8,4.5,23.6,4.5,23.6h10.3v4.2h-9.2l3.9,21.2h-19.1L167.5,248.7z"/>
	<polygon id="XMLID_35_" class="st0" points="253.2,257.8 237.7,257.8 233.4,239.6 233.4,257.8 214.7,257.8 214.7,195.4 
		232.9,195.4 	"/>
	<path id="XMLID_36_" class="st0" d="M70.4,197.8c2.5-1.9,6-2.3,9.3-2.3c13,0,25.9,0,38.9,0c3.3,0.1,6.9,0.2,9.7,2
		c2.3,1.5,3.3,4,3.3,6.4c0,8.3,0,25,0,25h-19.4v-19.3H86.9v36.3H67.6c0,0,0-28,0-42C67.5,201.6,68.4,199.3,70.4,197.8z"/>
	<polygon id="XMLID_37_" class="st0" points="303.8,195.4 356.8,195.4 356.8,210 323.2,210 323.2,241.7 352.3,241.7 352.3,255.8 
		323.2,255.8 323.2,257.9 303.8,257.9 	"/>
	<path id="XMLID_38_" class="st0" d="M414.7,195.4c3.6,0,7.5,0,10.7,1.5c3,1.6,4,4.6,4,7.4c0,13.9,0,27.8,0,41.7
		c0.1,3.1-1.5,6.8-5.2,8c-4.1,1.1-8.6,1-12.8,1.1c0.4,0.9,1.1,2.7,1.1,2.7h-19.2l-1.8-3.6v-10.3H410v-34.6h-24.2l0,48.4h-19.4v-62.4
		H414.7z"/>
	<path id="XMLID_39_" class="st0" d="M131.5,246.3c0,0,0.2,34,0,51c0,4.4-5.3,7.5-10.1,7.3c-13.9,0.1-27.8-0.1-41.7,0
		c-3,0-6.2-0.2-8.7-1.8c-2.5-1.5-3.3-4.2-3.4-6.7c0-14.8,0-44.6,0-44.6l19.4,0v39l25.1,0l0-30.6l-14.2,0v-8.5h6.5v-5.2"/>
	<rect id="XMLID_40_" x="214.8" y="261.8" class="st0" width="18.6" height="42.7"/>
	<polygon id="XMLID_41_" class="st0" points="239,261.8 268.5,261.8 258.6,294.6 248.9,294.6 	"/>
	<polygon id="XMLID_42_" class="st0" points="303.9,261.8 323.2,261.8 323.2,290.1 357.4,290.1 357.4,304.6 303.9,304.6 	"/>
	<rect id="XMLID_43_" x="366.4" y="261.8" class="st0" width="19.3" height="42.7"/>
	<polygon id="XMLID_44_" class="st0" points="394.5,261.8 414.2,261.8 432.5,304.6 412.3,304.6 	"/>
	<rect id="XMLID_46_" x="274.1" y="261.8" class="st0" width="18.6" height="42.7"/>
	<polygon id="XMLID_47_" class="st0" points="254.5,257.9 269.9,257.9 274.2,239.7 274.2,257.9 292.9,257.9 292.9,195.4 
		274.7,195.4 	"/>
</g>
</svg>
